<?xml version="1.0" encoding="UTF-8" standalone="no"?>
<!-- Created with Digital by H.Neemann -->
<!-- created: Thu Oct 09 19:52:21 EDT 2025 -->

<svg
   xmlns:svg="http://www.w3.org/2000/svg"
   xmlns="http://www.w3.org/2000/svg"
   width="81.9mm"
   height="46.65mm"
   viewBox="147 343 546 311">
<g stroke-linecap="square">
<path d="M 240,400 L 320,400 L 320,520 L 380,520" stroke="#0000b2" stroke-width="4.0" fill="none"/>
<path d="M 240,420 L 300,420 L 300,600 L 380,600" stroke="#0000b2" stroke-width="4.0" fill="none"/>
<path d="M 180,360 L 220,360" stroke="#0000b2" stroke-width="4.0" fill="none"/>
<path d="M 240,360 L 380,360" stroke="#0000b2" stroke-width="4.0" fill="none"/>
<path d="M 440,360 L 600,360" stroke="#0000b2" stroke-width="4.0" fill="none"/>
<path d="M 620,360 L 660,360" stroke="#0000b2" stroke-width="4.0" fill="none"/>
<path d="M 440,440 L 560,440 L 560,380 L 600,380" stroke="#0000b2" stroke-width="4.0" fill="none"/>
<path d="M 440,520 L 580,520 L 580,400 L 600,400" stroke="#0000b2" stroke-width="4.0" fill="none"/>
<path d="M 440,600 L 600,600 L 600,420" stroke="#0000b2" stroke-width="4.0" fill="none"/>
<path d="M 240,380 L 340,380 L 340,440 L 380,440" stroke="#0000b2" stroke-width="4.0" fill="none"/>
<path d="M 180,620 L 360,620 L 380,620" stroke="#0000b2" stroke-width="4.0" fill="none"/>
<path d="M 360,460 L 360,540 L 380,540" stroke="#0000b2" stroke-width="4.0" fill="none"/>
<path d="M 380,380 L 360,380 L 360,460 L 380,460" stroke="#0000b2" stroke-width="4.0" fill="none"/>
<path d="M 360,540 L 360,620" stroke="#0000b2" stroke-width="4.0" fill="none"/>
<path d="M 220,360 L 230,360 L 240,360" stroke="#000000" stroke-width="4.0" fill="none"/>
<path d="M 240,380 L 230,380" stroke="#000000" stroke-width="4.0" fill="none"/>
<path d="M 240,400 L 230,400" stroke="#000000" stroke-width="4.0" fill="none"/>
<path d="M 240,420 L 230,420" stroke="#000000" stroke-width="4.0" fill="none"/>
<path d="M 600,360 L 610,360 L 620,360" stroke="#000000" stroke-width="4.0" fill="none"/>
<path d="M 600,380 L 610,380" stroke="#000000" stroke-width="4.0" fill="none"/>
<path d="M 600,400 L 610,400" stroke="#000000" stroke-width="4.0" fill="none"/>
<path d="M 600,420 L 610,420" stroke="#000000" stroke-width="4.0" fill="none"/>
<g>
<circle cx="360.0" cy="620.0" r="4.0" stroke="#0000b2" stroke-width="4.0" fill="#0000b2" />
<circle cx="360.0" cy="540.0" r="4.0" stroke="#0000b2" stroke-width="4.0" fill="#0000b2" />
<circle cx="360.0" cy="460.0" r="4.0" stroke="#0000b2" stroke-width="4.0" fill="#0000b2" />
</g>
<g>
<path d="M 381,350 L 439,350 L 439,390 L 381,390 Z" stroke="#000000" stroke-width="4.0" fill="none"/>
<text text-anchor="start" x="384.0" y="366.75" fill="#808080" style="font-size:18px">D</text>
<path d="M 381,387 L 388,380 L 381,373" stroke="#000000" stroke-width="2.0" fill="none"/>
<text text-anchor="start" x="391.0" y="386.75" fill="#808080" style="font-size:18px">C</text>
<text text-anchor="end" x="436.0" y="366.75" fill="#808080" style="font-size:18px">Q</text>
<text text-anchor="end" x="436.0" y="386.75" fill="#808080" style="font-size:18px"><tspan style="text-decoration:overline;">Q</tspan></text>
<text text-anchor="middle" x="410.0" y="407.5" fill="#808080" style="font-size:18px">D</text>
<circle cx="380.0" cy="360.0" r="2.0" stroke="#0000b2" stroke-width="4.0" fill="#0000b2" />
<circle cx="380.0" cy="380.0" r="2.0" stroke="#0000b2" stroke-width="4.0" fill="#0000b2" />
<circle cx="440.0" cy="360.0" r="2.0" stroke="#b20000" stroke-width="4.0" fill="#b20000" />
<circle cx="440.0" cy="380.0" r="2.0" stroke="#b20000" stroke-width="4.0" fill="#b20000" />
</g>
<g>
<path d="M 381,430 L 439,430 L 439,470 L 381,470 Z" stroke="#000000" stroke-width="4.0" fill="none"/>
<text text-anchor="start" x="384.0" y="446.75" fill="#808080" style="font-size:18px">D</text>
<path d="M 381,467 L 388,460 L 381,453" stroke="#000000" stroke-width="2.0" fill="none"/>
<text text-anchor="start" x="391.0" y="466.75" fill="#808080" style="font-size:18px">C</text>
<text text-anchor="end" x="436.0" y="446.75" fill="#808080" style="font-size:18px">Q</text>
<text text-anchor="end" x="436.0" y="466.75" fill="#808080" style="font-size:18px"><tspan style="text-decoration:overline;">Q</tspan></text>
<text text-anchor="middle" x="410.0" y="487.5" fill="#808080" style="font-size:18px">D</text>
<circle cx="380.0" cy="440.0" r="2.0" stroke="#0000b2" stroke-width="4.0" fill="#0000b2" />
<circle cx="380.0" cy="460.0" r="2.0" stroke="#0000b2" stroke-width="4.0" fill="#0000b2" />
<circle cx="440.0" cy="440.0" r="2.0" stroke="#b20000" stroke-width="4.0" fill="#b20000" />
<circle cx="440.0" cy="460.0" r="2.0" stroke="#b20000" stroke-width="4.0" fill="#b20000" />
</g>
<g>
<path d="M 381,510 L 439,510 L 439,550 L 381,550 Z" stroke="#000000" stroke-width="4.0" fill="none"/>
<text text-anchor="start" x="384.0" y="526.75" fill="#808080" style="font-size:18px">D</text>
<path d="M 381,547 L 388,540 L 381,533" stroke="#000000" stroke-width="2.0" fill="none"/>
<text text-anchor="start" x="391.0" y="546.75" fill="#808080" style="font-size:18px">C</text>
<text text-anchor="end" x="436.0" y="526.75" fill="#808080" style="font-size:18px">Q</text>
<text text-anchor="end" x="436.0" y="546.75" fill="#808080" style="font-size:18px"><tspan style="text-decoration:overline;">Q</tspan></text>
<text text-anchor="middle" x="410.0" y="567.5" fill="#808080" style="font-size:18px">D</text>
<circle cx="380.0" cy="520.0" r="2.0" stroke="#0000b2" stroke-width="4.0" fill="#0000b2" />
<circle cx="380.0" cy="540.0" r="2.0" stroke="#0000b2" stroke-width="4.0" fill="#0000b2" />
<circle cx="440.0" cy="520.0" r="2.0" stroke="#b20000" stroke-width="4.0" fill="#b20000" />
<circle cx="440.0" cy="540.0" r="2.0" stroke="#b20000" stroke-width="4.0" fill="#b20000" />
</g>
<g>
<path d="M 381,590 L 439,590 L 439,630 L 381,630 Z" stroke="#000000" stroke-width="4.0" fill="none"/>
<text text-anchor="start" x="384.0" y="606.75" fill="#808080" style="font-size:18px">D</text>
<path d="M 381,627 L 388,620 L 381,613" stroke="#000000" stroke-width="2.0" fill="none"/>
<text text-anchor="start" x="391.0" y="626.75" fill="#808080" style="font-size:18px">C</text>
<text text-anchor="end" x="436.0" y="606.75" fill="#808080" style="font-size:18px">Q</text>
<text text-anchor="end" x="436.0" y="626.75" fill="#808080" style="font-size:18px"><tspan style="text-decoration:overline;">Q</tspan></text>
<text text-anchor="middle" x="410.0" y="647.5" fill="#808080" style="font-size:18px">D</text>
<circle cx="380.0" cy="600.0" r="2.0" stroke="#0000b2" stroke-width="4.0" fill="#0000b2" />
<circle cx="380.0" cy="620.0" r="2.0" stroke="#0000b2" stroke-width="4.0" fill="#0000b2" />
<circle cx="440.0" cy="600.0" r="2.0" stroke="#b20000" stroke-width="4.0" fill="#b20000" />
<circle cx="440.0" cy="620.0" r="2.0" stroke="#b20000" stroke-width="4.0" fill="#b20000" />
</g>
<g>
<path d="M 149,345 L 179,345 L 179,375 L 149,375 Z" stroke="#000000" stroke-width="4.0" fill="none"/>
<circle cx="164.0" cy="360.0" r="9.0" stroke="#000000" stroke-width="4.0" fill="none" />
<circle cx="180.0" cy="360.0" r="2.0" stroke="#b20000" stroke-width="4.0" fill="#b20000" />
</g>
<g>
<text text-anchor="end" x="218.0" y="357.0" fill="#808080" style="font-size:12px">0-3</text>
<text text-anchor="start" x="242.0" y="357.0" fill="#808080" style="font-size:12px">0</text>
<text text-anchor="start" x="242.0" y="377.0" fill="#808080" style="font-size:12px">1</text>
<text text-anchor="start" x="242.0" y="397.0" fill="#808080" style="font-size:12px">2</text>
<text text-anchor="start" x="242.0" y="417.0" fill="#808080" style="font-size:12px">3</text>
<path d="M 228,358 L 232,358 L 232,422 L 228,422 Z" stroke="#000000" stroke-width="4.0" fill="#000000" fill-opacity="1.0"/>
<circle cx="220.0" cy="360.0" r="2.0" stroke="#0000b2" stroke-width="4.0" fill="#0000b2" />
<circle cx="240.0" cy="360.0" r="2.0" stroke="#b20000" stroke-width="4.0" fill="#b20000" />
<circle cx="240.0" cy="380.0" r="2.0" stroke="#b20000" stroke-width="4.0" fill="#b20000" />
<circle cx="240.0" cy="400.0" r="2.0" stroke="#b20000" stroke-width="4.0" fill="#b20000" />
<circle cx="240.0" cy="420.0" r="2.0" stroke="#b20000" stroke-width="4.0" fill="#b20000" />
</g>
<g>
<path d="M 149,605 L 179,605 L 179,635 L 149,635 Z" stroke="#000000" stroke-width="4.0" fill="none"/>
<path d="M 155,625 L 160,625 L 160,615 L 165,615 L 165,625 L 170,625 L 170,615 L 175,615" stroke="#000000" stroke-width="2.0" fill="none"/>
<circle cx="180.0" cy="620.0" r="2.0" stroke="#b20000" stroke-width="4.0" fill="#b20000" />
</g>
<g>
<text text-anchor="end" x="598.0" y="357.0" fill="#808080" style="font-size:12px">0</text>
<text text-anchor="end" x="598.0" y="377.0" fill="#808080" style="font-size:12px">1</text>
<text text-anchor="end" x="598.0" y="397.0" fill="#808080" style="font-size:12px">2</text>
<text text-anchor="end" x="598.0" y="417.0" fill="#808080" style="font-size:12px">3</text>
<text text-anchor="start" x="622.0" y="357.0" fill="#808080" style="font-size:12px">0-3</text>
<path d="M 608,358 L 612,358 L 612,422 L 608,422 Z" stroke="#000000" stroke-width="4.0" fill="#000000" fill-opacity="1.0"/>
<circle cx="600.0" cy="360.0" r="2.0" stroke="#0000b2" stroke-width="4.0" fill="#0000b2" />
<circle cx="600.0" cy="380.0" r="2.0" stroke="#0000b2" stroke-width="4.0" fill="#0000b2" />
<circle cx="600.0" cy="400.0" r="2.0" stroke="#0000b2" stroke-width="4.0" fill="#0000b2" />
<circle cx="600.0" cy="420.0" r="2.0" stroke="#0000b2" stroke-width="4.0" fill="#0000b2" />
<circle cx="620.0" cy="360.0" r="2.0" stroke="#b20000" stroke-width="4.0" fill="#b20000" />
</g>
<g>
<circle cx="676.0" cy="360.0" r="9.0" stroke="#000000" stroke-width="4.0" fill="none" />
<circle cx="676.0" cy="360.0" r="15.0" stroke="#000000" stroke-width="4.0" fill="none" />
<circle cx="660.0" cy="360.0" r="2.0" stroke="#0000b2" stroke-width="4.0" fill="#0000b2" />
</g>
</g>
</svg>